<svg version="1.1" id="Layer_1" xmlns="http://www.w3.org/2000/svg" xmlns:xlink="http://www.w3.org/1999/xlink" x="0px" y="0px"
	 width="100%" viewBox="0 0 500 500" enable-background="new 0 0 500 500" xml:space="preserve">
<path fill="#FFFFFF" opacity="1.000000" stroke="none" 
	d="
M234.000000,501.000000 
	C156.000015,501.000000 78.500038,501.000000 1.000041,501.000000 
	C1.000028,334.333405 1.000028,167.666779 1.000014,1.000131 
	C167.666565,1.000087 334.333130,1.000087 500.999756,1.000044 
	C500.999847,167.666519 500.999847,334.333038 500.999939,500.999786 
	C412.166656,501.000000 323.333344,501.000000 234.000000,501.000000 
M188.722168,337.821686 
	C190.164902,337.477539 191.607620,337.133392 193.464890,337.509186 
	C196.228851,337.399902 199.080490,337.687653 201.738907,337.100525 
	C207.673141,335.789856 208.408524,334.070740 206.263290,328.397400 
	C206.066086,327.875885 206.134659,327.200562 206.240250,326.626129 
	C207.189178,321.463501 205.830643,319.574646 200.698624,319.767242 
	C198.110626,319.864349 195.552750,320.763428 192.306595,320.875549 
	C189.273422,319.015320 187.285965,320.196594 185.125671,322.860474 
	C183.854156,321.760590 182.582626,320.660675 181.282043,319.535645 
	C179.390030,321.592468 177.942657,323.165924 176.183167,325.078644 
	C176.005753,322.983765 175.887421,321.586548 175.715500,319.556610 
	C173.524490,320.197052 171.786911,320.704956 169.286224,320.852386 
	C166.837860,320.681366 164.389511,320.510376 161.453796,319.840027 
	C160.053070,319.840027 158.652359,319.840027 157.470352,319.840027 
	C156.773880,322.677368 156.211914,324.966675 155.649948,327.256012 
	C155.362564,327.255188 155.075180,327.254395 154.787796,327.253571 
	C154.034134,324.831757 153.280472,322.409912 152.593216,320.201447 
	C145.758865,318.541901 148.782578,325.360535 145.824707,327.536316 
	C145.008362,324.928528 144.292847,322.642822 143.475433,320.031647 
	C141.792130,320.542328 140.306931,320.992920 138.460236,321.553162 
	C140.209229,327.251831 141.845551,332.583435 143.862396,339.154877 
	C146.746262,337.393311 148.947525,336.048706 150.810379,334.910828 
	C152.023666,335.680145 153.592514,337.375244 155.388428,337.665527 
	C158.949448,338.241119 158.988968,334.987274 159.535858,332.666534 
	C160.447128,328.799438 161.187912,324.892212 162.998520,320.719849 
	C163.340942,326.364929 163.683365,332.010040 164.056351,338.158752 
	C166.293625,337.660065 168.167847,337.242310 170.443420,337.482697 
	C174.724854,339.388885 176.024963,336.254364 177.581039,332.208313 
	C179.073441,334.411560 180.161026,336.017181 181.454056,337.926117 
	C183.111923,335.916107 184.218765,334.574127 185.313492,333.246887 
	C183.908325,331.379395 182.745468,329.833923 181.455246,328.119232 
	C183.010574,326.209320 184.440750,324.453094 186.496918,323.509949 
	C186.684219,328.006317 186.871521,332.502716 186.998077,337.551605 
	C187.327103,337.600555 187.656113,337.649475 188.722168,337.821686 
M332.218567,311.672058 
	C335.495605,313.748260 338.772614,315.824493 342.433105,318.445435 
	C345.852783,321.363678 349.272491,324.281921 352.945984,327.841431 
	C356.422882,334.051483 359.899811,340.261536 363.017517,345.830048 
	C366.401184,336.975586 365.255157,327.525879 359.142761,318.561707 
	C359.810059,318.356598 360.477325,318.151489 361.144623,317.946411 
	C363.425598,323.289032 365.706573,328.631622 367.817444,333.575775 
	C371.693146,323.349243 368.710449,311.307983 359.765686,303.202942 
	C356.505066,300.862549 353.244415,298.522186 349.429413,295.905365 
	C348.918243,295.268250 348.407043,294.631134 348.212189,293.286713 
	C351.188873,279.448029 354.165558,265.609375 357.570404,251.265152 
	C358.535248,247.326080 359.774017,243.426392 360.348602,239.431183 
	C360.633484,237.450394 360.502716,234.646240 356.633392,234.316864 
	C356.438904,231.814148 356.244415,229.311432 355.996460,226.120590 
	C354.331024,228.626892 353.172974,230.369629 351.396667,231.805832 
	C349.662109,230.644882 347.927551,229.483917 345.618622,227.938507 
	C350.905151,225.187592 355.460724,222.485535 360.287750,220.416748 
	C363.752502,218.931839 365.240295,216.668610 365.989288,213.111618 
	C369.618439,195.876694 373.445831,178.683334 377.239319,161.483261 
	C379.334137,151.985092 374.906799,146.426132 365.049194,146.420258 
	C328.085999,146.398209 291.122833,146.407928 254.159637,146.424957 
	C252.760559,146.425598 251.361588,146.624954 249.138443,146.794601 
	C254.072418,153.319016 258.688110,158.986679 262.745544,165.029190 
	C264.127045,167.086594 265.072845,170.294205 264.575623,172.626144 
	C257.645813,205.127426 250.416992,237.564880 243.292969,270.024902 
	C240.851791,281.147858 238.498978,292.290161 236.013916,303.851105 
	C238.428085,303.851105 240.242981,303.851105 242.057861,303.851105 
	C264.701965,303.851105 287.347321,303.729980 309.989136,303.957245 
	C314.317291,304.000671 318.631653,305.417236 323.343140,306.737061 
	C326.169220,308.198181 328.995300,309.659302 332.218567,311.672058 
M169.497543,144.997208 
	C157.057144,144.997208 144.616760,144.997208 131.365479,144.997208 
	C132.695450,147.468536 133.515640,149.426300 134.703171,151.127640 
	C141.561935,160.954025 143.267929,171.186676 141.356049,183.399368 
	C135.925720,218.087006 131.927383,252.998993 127.381050,287.824707 
	C126.202553,296.852264 125.081978,305.887421 123.866760,315.454712 
	C135.988708,311.483887 147.458954,307.589050 159.029236,304.018433 
	C162.599228,302.916748 164.974686,301.044739 166.953873,297.887512 
	C176.278046,283.013580 185.819916,268.276184 196.008163,252.358902 
	C196.008163,254.232147 196.054001,254.820709 196.001511,255.400391 
	C194.304260,274.142395 192.625687,292.886261 190.815475,311.617432 
	C190.716858,312.638031 189.388763,313.489716 188.846100,314.531097 
	C188.259201,315.657349 187.922638,316.914032 187.476898,318.113800 
	C188.835785,318.047760 190.313828,318.299866 191.527252,317.845398 
	C193.653961,317.048920 195.543060,315.624390 197.663727,314.804291 
	C207.264496,311.091400 216.894409,307.451660 226.552917,303.891663 
	C229.215317,302.910339 230.742188,301.650787 231.423904,298.495209 
	C240.445358,256.736237 249.708450,215.029510 258.780487,173.281326 
	C259.152740,171.568298 258.816101,169.163406 257.828461,167.782867 
	C252.697845,160.611115 247.286453,153.637787 241.861343,146.682312 
	C241.196594,145.830048 239.863968,145.498688 238.840866,144.925903 
	C243.065964,151.732010 247.619308,157.887207 252.416901,163.845749 
	C254.211914,166.075134 254.468369,167.789551 253.201797,170.501022 
	C245.825439,186.292267 238.716995,202.208588 231.487518,218.068741 
	C230.999466,219.139389 230.261154,220.095963 229.003357,222.137894 
	C229.003357,213.166580 229.058029,205.501801 228.952789,197.839218 
	C228.933884,196.463440 228.693130,194.635269 227.811813,193.798630 
	C220.584625,186.937759 213.181473,180.262283 205.594070,173.312820 
	C195.548767,190.794205 185.725983,207.888367 175.903198,224.982513 
	C175.622330,224.837585 175.341476,224.692657 175.060623,224.547714 
	C178.883209,198.141144 182.705780,171.734573 186.576248,144.997208 
	C180.794952,144.997208 175.645493,144.997208 169.497543,144.997208 
M226.804306,324.188110 
	C226.393341,323.699890 225.934509,323.244080 225.579041,322.718353 
	C222.883682,318.732117 219.085236,319.155121 215.322067,320.401337 
	C211.393021,321.702515 208.786102,326.457245 209.308258,330.869568 
	C209.742401,334.538147 211.625504,337.171783 215.412384,337.762848 
	C219.917892,338.466064 223.171921,336.279694 225.138336,332.402130 
	C226.148987,330.409210 226.509689,328.086639 227.183533,325.848572 
	C228.768021,325.958618 230.342789,326.067993 232.359222,326.208038 
	C232.359222,330.169678 232.359222,333.917969 232.359222,338.078339 
	C234.444260,337.836182 236.024048,337.652710 238.064667,337.415710 
	C238.064667,333.179077 238.064667,329.267487 238.064667,325.164978 
	C242.584641,325.475739 243.958557,323.769226 242.179932,319.609375 
	C238.294601,319.976837 234.312241,320.159851 230.417679,320.843262 
	C229.293274,321.040558 228.421310,322.676483 226.804306,324.188110 
M296.452576,336.263611 
	C294.965088,331.256897 293.684326,326.175018 291.903381,321.274963 
	C291.006409,318.807068 286.018677,318.956573 285.136627,321.502808 
	C283.365112,326.616791 282.075317,331.897675 280.421204,337.689056 
	C282.628601,337.689056 284.657654,338.288635 285.352631,337.579926 
	C287.716187,335.169800 289.807617,335.687195 292.378021,337.002563 
	C293.235168,337.441223 294.629059,336.831085 296.452576,336.263611 
M298.029327,335.144440 
	C299.007141,336.046753 299.936829,337.578491 300.977631,337.658112 
	C301.855957,337.725281 303.633667,336.150208 303.684692,335.228485 
	C303.957489,330.302307 303.813324,325.353027 303.813324,319.959198 
	C301.585266,320.171295 300.014191,320.320862 298.013367,320.511353 
	C298.013367,325.316864 298.013367,329.765228 298.029327,335.144440 
z"/>
<path fill="#020202" opacity="1.000000" stroke="none" 
	d="
M169.996796,144.997208 
	C175.645493,144.997208 180.794952,144.997208 186.576248,144.997208 
	C182.705780,171.734573 178.883209,198.141144 175.060623,224.547714 
	C175.341476,224.692657 175.622330,224.837585 175.903198,224.982513 
	C185.725983,207.888367 195.548767,190.794205 205.594070,173.312820 
	C213.181473,180.262283 220.584625,186.937759 227.811813,193.798630 
	C228.693130,194.635269 228.933884,196.463440 228.952789,197.839218 
	C229.058029,205.501801 229.003357,213.166580 229.003357,222.137894 
	C230.261154,220.095963 230.999466,219.139389 231.487518,218.068741 
	C238.716995,202.208588 245.825439,186.292267 253.201797,170.501022 
	C254.468369,167.789551 254.211914,166.075134 252.416901,163.845749 
	C247.619308,157.887207 243.065964,151.732010 238.840866,144.925903 
	C239.863968,145.498688 241.196594,145.830048 241.861343,146.682312 
	C247.286453,153.637787 252.697845,160.611115 257.828461,167.782867 
	C258.816101,169.163406 259.152740,171.568298 258.780487,173.281326 
	C249.708450,215.029510 240.445358,256.736237 231.423904,298.495209 
	C230.742188,301.650787 229.215317,302.910339 226.552917,303.891663 
	C216.894409,307.451660 207.264496,311.091400 197.663727,314.804291 
	C195.543060,315.624390 193.653961,317.048920 191.527252,317.845398 
	C190.313828,318.299866 188.835785,318.047760 187.476898,318.113831 
	C187.922638,316.914032 188.259201,315.657349 188.846100,314.531097 
	C189.388763,313.489716 190.716858,312.638031 190.815475,311.617432 
	C192.625687,292.886261 194.304260,274.142395 196.001511,255.400391 
	C196.054001,254.820709 196.008163,254.232147 196.008163,252.358902 
	C185.819916,268.276184 176.278046,283.013580 166.953873,297.887512 
	C164.974686,301.044739 162.599228,302.916748 159.029236,304.018433 
	C147.458954,307.589050 135.988708,311.483887 123.866760,315.454712 
	C125.081978,305.887421 126.202553,296.852264 127.381050,287.824707 
	C131.927383,252.998993 135.925720,218.087006 141.356049,183.399368 
	C143.267929,171.186676 141.561935,160.954025 134.703171,151.127640 
	C133.515640,149.426300 132.695450,147.468536 131.365479,144.997208 
	C144.616760,144.997208 157.057144,144.997208 169.996796,144.997208 
z"/>
<path fill="#1992C8" opacity="1.000000" stroke="none" 
	d="
M322.952393,306.200287 
	C318.631653,305.417236 314.317291,304.000671 309.989136,303.957245 
	C287.347321,303.729980 264.701965,303.851105 242.057861,303.851105 
	C240.242981,303.851105 238.428085,303.851105 236.013916,303.851105 
	C238.498978,292.290161 240.851791,281.147858 243.292969,270.024902 
	C250.416992,237.564880 257.645813,205.127426 264.575623,172.626144 
	C265.072845,170.294205 264.127045,167.086594 262.745544,165.029190 
	C258.688110,158.986679 254.072418,153.319016 249.138443,146.794601 
	C251.361588,146.624954 252.760559,146.425598 254.159637,146.424957 
	C291.122833,146.407928 328.085999,146.398209 365.049194,146.420258 
	C374.906799,146.426132 379.334137,151.985092 377.239319,161.483261 
	C373.445831,178.683334 369.618439,195.876694 365.989288,213.111618 
	C365.240295,216.668610 363.752502,218.931839 360.287750,220.416748 
	C355.460724,222.485535 350.905151,225.187592 345.618622,227.938507 
	C347.927551,229.483917 349.662109,230.644882 351.568207,232.258743 
	C349.019775,235.361725 346.299805,238.011780 343.254608,240.749893 
	C339.611176,242.855637 336.292969,244.873337 332.626373,246.965240 
	C329.851440,248.359177 327.424927,249.678894 324.652618,251.042847 
	C322.107788,251.786453 319.908783,252.485840 317.793091,252.771759 
	C318.617737,248.658951 319.359039,244.959625 320.241913,240.553787 
	C314.666107,243.129837 309.808197,245.374222 304.644592,247.759827 
	C301.887238,237.956497 299.513000,228.795227 296.665436,219.783524 
	C295.674652,216.647934 296.558990,215.373032 299.142059,213.931854 
	C308.433929,208.747620 317.640961,203.407745 326.790405,197.975662 
	C328.213623,197.130676 329.820496,195.676682 330.225403,194.198349 
	C331.743378,188.656433 332.797974,182.987595 334.078033,177.129639 
	C323.492188,177.129639 313.409271,177.129639 303.262726,177.129639 
	C302.158813,182.086151 300.733459,186.736816 300.147888,191.490921 
	C299.036163,200.516312 296.172974,208.147263 286.915558,211.748611 
	C286.657227,211.849106 286.513885,212.245239 285.709412,213.300201 
	C293.106476,225.850800 290.530823,239.287598 286.770996,252.748367 
	C286.145813,254.986633 285.640625,257.261932 285.166473,259.538116 
	C284.233582,264.016388 283.361359,268.507294 282.291779,273.854340 
	C287.742554,273.854340 292.369537,273.854340 296.989746,274.277771 
	C293.544067,284.629578 299.467834,290.716156 306.103577,296.326813 
	C307.547913,297.548065 309.828766,297.779877 311.724365,298.467377 
	C312.135681,296.281342 312.831085,294.095398 312.831909,291.909210 
	C312.832275,290.898865 311.468201,289.894196 310.738403,288.875732 
	C309.816223,287.588806 308.910034,286.290405 308.351593,285.031738 
	C309.524506,285.592621 310.288971,286.247223 311.172546,286.617432 
	C312.882324,287.333832 314.659241,287.890015 316.408325,288.512604 
	C316.776123,286.365234 317.638123,284.148010 317.347687,282.093719 
	C317.134125,280.583038 315.526031,279.177643 314.332550,277.921844 
	C312.994934,276.514343 311.424408,275.328217 310.351624,273.990906 
	C314.834229,275.263245 318.936066,277.691559 323.278076,273.694458 
	C325.760712,272.457794 327.912506,271.288574 330.420563,270.066711 
	C334.598846,267.740967 338.420898,265.467865 342.556946,263.114990 
	C344.266052,262.073517 345.661224,261.111816 347.390900,260.070129 
	C350.864349,257.250305 354.003296,254.510513 357.142242,251.770706 
	C354.165558,265.609375 351.188873,279.448029 347.703857,293.602966 
	C344.799194,292.938324 342.402863,291.957397 339.801910,290.702087 
	C337.397736,289.285065 335.239502,288.052521 332.989685,287.019440 
	C328.906525,285.144562 326.856201,286.259216 327.179108,290.806244 
	C327.335632,293.009979 328.881836,295.577972 330.588623,297.088928 
	C332.622223,298.889191 335.503021,299.732483 338.232910,301.096008 
	C338.716827,301.399048 338.900970,301.656403 338.859741,302.088135 
	C338.717987,302.202637 338.357819,302.257141 338.040588,302.260864 
	C336.481903,302.174347 335.240417,302.084106 333.799500,301.716431 
	C333.172791,301.185608 332.756927,300.910278 332.316620,300.682068 
	C323.107849,295.910004 323.107300,295.911072 322.952393,306.200287 
z"/>
<path fill="#101010" opacity="1.000000" stroke="none" 
	d="
M227.118958,323.920471 
	C228.421310,322.676483 229.293274,321.040558 230.417679,320.843262 
	C234.312241,320.159851 238.294601,319.976837 242.179932,319.609375 
	C243.958557,323.769226 242.584641,325.475739 238.064667,325.164978 
	C238.064667,329.267487 238.064667,333.179077 238.064667,337.415710 
	C236.024048,337.652710 234.444260,337.836182 232.359222,338.078339 
	C232.359222,333.917969 232.359222,330.169678 232.359222,326.208038 
	C230.342789,326.067993 228.768021,325.958618 227.183533,325.848572 
	C226.509689,328.086639 226.148987,330.409210 225.138336,332.402130 
	C223.171921,336.279694 219.917892,338.466064 215.412384,337.762848 
	C211.625504,337.171783 209.742401,334.538147 209.308258,330.869568 
	C208.786102,326.457245 211.393021,321.702515 215.322067,320.401337 
	C219.085236,319.155121 222.883682,318.732117 225.579041,322.718353 
	C225.934509,323.244080 226.393341,323.699890 227.118958,323.920471 
M214.843353,329.391907 
	C215.980240,330.228485 217.117111,331.065063 218.253998,331.901642 
	C219.166458,330.639587 220.267471,329.460419 220.880188,328.066589 
	C221.072052,327.630157 219.625229,325.906647 219.476669,325.974365 
	C217.889359,326.698242 216.412247,327.663757 214.843353,329.391907 
z"/>
<path fill="#3BD0F8" opacity="1.000000" stroke="none" 
	d="
M360.082520,303.771576 
	C368.710449,311.307983 371.693146,323.349243 367.817444,333.575775 
	C365.706573,328.631622 363.425598,323.289032 361.144623,317.946411 
	C360.477325,318.151489 359.810059,318.356598 359.142761,318.561707 
	C365.255157,327.525879 366.401184,336.975586 363.017517,345.830048 
	C359.899811,340.261536 356.422882,334.051483 353.156647,327.250763 
	C353.906738,322.784912 354.446198,318.909760 355.313568,315.158752 
	C356.383881,315.841766 357.126282,316.400543 358.689758,317.577332 
	C358.170349,315.806732 357.925323,314.971405 358.093079,314.038940 
	C359.031433,310.551727 359.556976,307.161652 360.082520,303.771576 
z"/>
<path fill="#101010" opacity="1.000000" stroke="none" 
	d="
M162.000458,321.001862 
	C161.187912,324.892212 160.447128,328.799438 159.535858,332.666534 
	C158.988968,334.987274 158.949448,338.241119 155.388428,337.665527 
	C153.592514,337.375244 152.023666,335.680145 150.810379,334.910828 
	C148.947525,336.048706 146.746262,337.393311 143.862396,339.154877 
	C141.845551,332.583435 140.209229,327.251831 138.460236,321.553162 
	C140.306931,320.992920 141.792130,320.542328 143.475433,320.031647 
	C144.292847,322.642822 145.008362,324.928528 145.824707,327.536316 
	C148.782578,325.360535 145.758865,318.541901 152.593216,320.201447 
	C153.280472,322.409912 154.034134,324.831757 154.787796,327.253571 
	C155.075180,327.254395 155.362564,327.255188 155.649948,327.256012 
	C156.211914,324.966675 156.773880,322.677368 157.470352,319.840027 
	C158.652359,319.840027 160.053070,319.840027 161.759949,320.251038 
	C162.066086,320.662048 162.000458,321.001862 162.000458,321.001862 
z"/>
<path fill="#101010" opacity="1.000000" stroke="none" 
	d="
M192.981247,321.299896 
	C195.552750,320.763428 198.110626,319.864349 200.698624,319.767242 
	C205.830643,319.574646 207.189178,321.463501 206.240250,326.626129 
	C206.134659,327.200562 206.066086,327.875885 206.263290,328.397400 
	C208.408524,334.070740 207.673141,335.789856 201.738907,337.100525 
	C199.080490,337.687653 196.228851,337.399902 193.208862,336.699097 
	C192.962296,331.025940 192.971771,326.162933 192.981247,321.299896 
z"/>
<path fill="#101010" opacity="1.000000" stroke="none" 
	d="
M170.049332,321.212860 
	C171.786911,320.704956 173.524490,320.197052 175.715500,319.556610 
	C175.887421,321.586548 176.005753,322.983765 176.183167,325.078644 
	C177.942657,323.165924 179.390030,321.592468 181.282043,319.535645 
	C182.582626,320.660675 183.854156,321.760590 185.507446,322.908386 
	C185.889221,322.956268 185.870926,322.696869 185.870941,322.696869 
	C184.440750,324.453094 183.010574,326.209320 181.455246,328.119232 
	C182.745468,329.833923 183.908325,331.379395 185.313492,333.246887 
	C184.218765,334.574127 183.111923,335.916107 181.454056,337.926117 
	C180.161026,336.017181 179.073441,334.411560 177.581039,332.208313 
	C176.024963,336.254364 174.724854,339.388885 170.200409,336.700256 
	C169.988037,331.016174 170.018677,326.114532 170.049332,321.212860 
z"/>
<path fill="#1992C8" opacity="1.000000" stroke="none" 
	d="
M296.115051,336.481995 
	C294.629059,336.831085 293.235168,337.441223 292.378021,337.002563 
	C289.807617,335.687195 287.716187,335.169800 285.352631,337.579926 
	C284.657654,338.288635 282.628601,337.689056 280.421204,337.689056 
	C282.075317,331.897675 283.365112,326.616791 285.136627,321.502808 
	C286.018677,318.956573 291.006409,318.807068 291.903381,321.274963 
	C293.684326,326.175018 294.965088,331.256897 296.115051,336.481995 
z"/>
<path fill="#737677" opacity="1.000000" stroke="none" 
	d="
M357.356323,251.517929 
	C354.003296,254.510513 350.864349,257.250305 347.375183,259.631470 
	C346.688019,256.544861 346.351044,253.816864 346.276947,250.880432 
	C349.824738,247.098312 353.271942,243.654129 356.291840,239.869003 
	C357.155304,238.786682 356.780579,236.716507 356.980225,235.084503 
	C356.986847,235.069687 356.970093,235.100281 356.970093,235.100281 
	C360.502716,234.646240 360.633484,237.450394 360.348602,239.431183 
	C359.774017,243.426392 358.535248,247.326080 357.356323,251.517929 
z"/>
<path fill="#2FC0EC" opacity="1.000000" stroke="none" 
	d="
M354.985657,315.034576 
	C354.446198,318.909760 353.906738,322.784912 353.029724,326.930115 
	C349.272491,324.281921 345.852783,321.363678 342.477051,317.878784 
	C343.006836,313.901794 343.492706,310.491425 344.315552,307.141998 
	C348.096924,309.813477 351.541290,312.424042 354.985657,315.034576 
z"/>
<path fill="#28B3E2" opacity="1.000000" stroke="none" 
	d="
M339.001465,301.973602 
	C338.900970,301.656403 338.716827,301.399048 338.389526,300.726776 
	C338.888885,297.160126 339.447723,294.068298 340.006561,290.976471 
	C342.402863,291.957397 344.799194,292.938324 347.545685,293.956635 
	C348.407043,294.631134 348.918243,295.268250 349.711182,296.476990 
	C349.653015,300.397644 349.313049,303.746735 348.633759,307.005188 
	C345.196747,305.267609 342.099091,303.620605 339.001465,301.973602 
z"/>
<path fill="#2FC0EC" opacity="1.000000" stroke="none" 
	d="
M348.973114,307.095795 
	C349.313049,303.746735 349.653015,300.397644 349.988373,296.615173 
	C353.244415,298.522186 356.505066,300.862549 359.924103,303.487244 
	C359.556976,307.161652 359.031433,310.551727 357.810852,313.880249 
	C354.401550,311.577728 351.687317,309.336761 348.973114,307.095795 
z"/>
<path fill="#28B3E2" opacity="1.000000" stroke="none" 
	d="
M343.978546,307.081085 
	C343.492706,310.491425 343.006836,313.901794 342.285339,317.606415 
	C338.772614,315.824493 335.495605,313.748260 332.326965,311.141998 
	C332.956543,307.739258 333.477783,304.866547 333.998962,301.993866 
	C335.240417,302.084106 336.481903,302.174347 337.991455,302.586609 
	C340.165863,304.299500 342.072205,305.690277 343.978546,307.081085 
z"/>
<path fill="#020202" opacity="1.000000" stroke="none" 
	d="
M169.667786,321.032623 
	C170.018677,326.114532 169.988037,331.016174 169.999725,336.371216 
	C168.167847,337.242310 166.293625,337.660065 164.056351,338.158752 
	C163.683365,332.010040 163.340942,326.364929 162.499481,320.860840 
	C162.000458,321.001862 162.066086,320.662048 162.003616,320.500702 
	C164.389511,320.510376 166.837860,320.681366 169.667786,321.032623 
z"/>
<path fill="#737677" opacity="1.000000" stroke="none" 
	d="
M343.579803,240.661835 
	C346.299805,238.011780 349.019775,235.361725 351.877319,232.412018 
	C353.172974,230.369629 354.331024,228.626892 355.996460,226.120590 
	C356.244415,229.311432 356.438904,231.814148 356.801758,234.708572 
	C356.970093,235.100281 356.986847,235.069687 356.684387,235.242279 
	C353.267090,239.287216 350.152252,243.159546 346.661743,246.952515 
	C345.384003,244.802719 344.481903,242.732269 343.579803,240.661835 
z"/>
<path fill="#20A2D5" opacity="1.000000" stroke="none" 
	d="
M333.799530,301.716431 
	C333.477783,304.866547 332.956543,307.739258 332.128357,310.866180 
	C328.995300,309.659302 326.169220,308.198181 323.147766,306.468689 
	C323.107300,295.911072 323.107849,295.910004 332.316620,300.682068 
	C332.756927,300.910278 333.172791,301.185608 333.799530,301.716431 
z"/>
<path fill="#020202" opacity="1.000000" stroke="none" 
	d="
M186.183929,323.103394 
	C185.870926,322.696869 185.889221,322.956268 185.887070,323.019836 
	C187.285965,320.196594 189.273422,319.015320 192.643921,321.087708 
	C192.971771,326.162933 192.962296,331.025940 193.001587,336.339111 
	C191.607620,337.133392 190.164902,337.477539 188.252686,337.583069 
	C187.582840,337.143127 187.341400,337.028015 187.058838,336.999084 
	C186.871521,332.502716 186.684219,328.006317 186.183929,323.103394 
z"/>
<path fill="#20A2D5" opacity="1.000000" stroke="none" 
	d="
M298.021362,334.679016 
	C298.013367,329.765228 298.013367,325.316864 298.013367,320.511353 
	C300.014191,320.320862 301.585266,320.171295 303.813324,319.959198 
	C303.813324,325.353027 303.957489,330.302307 303.684692,335.228485 
	C303.633667,336.150208 301.855957,337.725281 300.977631,337.658112 
	C299.936829,337.578491 299.007141,336.046753 298.021362,334.679016 
z"/>
<path fill="#101010" opacity="1.000000" stroke="none" 
	d="
M187.028458,337.275330 
	C187.341400,337.028015 187.582840,337.143127 187.884155,337.521423 
	C187.656113,337.649475 187.327103,337.600555 187.028458,337.275330 
z"/>
<path fill="#FBFDFE" opacity="1.000000" stroke="none" 
	d="
M296.996521,273.854340 
	C292.369537,273.854340 287.742554,273.854340 282.291779,273.854340 
	C283.361359,268.507294 284.233582,264.016388 285.166473,259.538116 
	C285.640625,257.261932 286.145813,254.986633 286.770996,252.748367 
	C290.530823,239.287598 293.106476,225.850800 285.709412,213.300201 
	C286.513885,212.245239 286.657227,211.849106 286.915558,211.748611 
	C296.172974,208.147263 299.036163,200.516312 300.147888,191.490921 
	C300.733459,186.736816 302.158813,182.086151 303.262726,177.129639 
	C313.409271,177.129639 323.492188,177.129639 334.078033,177.129639 
	C332.797974,182.987595 331.743378,188.656433 330.225403,194.198349 
	C329.820496,195.676682 328.213623,197.130676 326.790405,197.975662 
	C317.640961,203.407745 308.433929,208.747620 299.142059,213.931854 
	C296.558990,215.373032 295.674652,216.647934 296.665436,219.783524 
	C299.513000,228.795227 301.887238,237.956497 304.644592,247.759827 
	C309.808197,245.374222 314.666107,243.129837 320.241913,240.553787 
	C319.359039,244.959625 318.617737,248.658951 317.596985,252.922302 
	C317.170441,253.972275 317.023346,254.458206 316.524658,255.001465 
	C313.450684,256.257477 310.768036,257.559021 307.996002,258.629181 
	C304.404846,260.015594 304.555847,262.701416 305.480164,265.567535 
	C306.609283,269.068634 309.047424,268.205444 311.502014,267.168549 
	C312.556732,266.722992 313.681091,266.442383 314.783325,266.403503 
	C314.785400,267.141937 314.777954,267.563751 314.467224,268.113220 
	C312.717712,269.997437 311.271454,271.753937 309.475403,273.417847 
	C306.675751,270.205170 304.225952,267.085175 301.336548,263.405334 
	C301.142029,266.876160 300.955139,270.209991 300.564331,273.566895 
	C300.360352,273.589935 300.009155,273.802612 299.761780,273.625183 
	C298.675110,273.583282 297.835815,273.718811 296.996521,273.854340 
z"/>
<path fill="#137EB8" opacity="1.000000" stroke="none" 
	d="
M296.989746,274.277771 
	C297.835815,273.718811 298.675110,273.583282 299.758392,274.030029 
	C300.787018,279.525146 302.470367,283.746063 308.001526,285.001526 
	C308.000000,285.000000 307.996948,284.996918 307.996948,284.996918 
	C308.910034,286.290405 309.816223,287.588806 310.738403,288.875732 
	C311.468201,289.894196 312.832275,290.898865 312.831909,291.909210 
	C312.831085,294.095398 312.135681,296.281342 311.724365,298.467377 
	C309.828766,297.779877 307.547913,297.548065 306.103577,296.326813 
	C299.467834,290.716156 293.544067,284.629578 296.989746,274.277771 
z"/>
<path fill="#137EB8" opacity="1.000000" stroke="none" 
	d="
M300.768311,273.543823 
	C300.955139,270.209991 301.142029,266.876160 301.336548,263.405334 
	C304.225952,267.085175 306.675751,270.205170 309.483093,273.557373 
	C309.840576,273.789581 309.955200,274.045776 309.955200,274.045776 
	C311.424408,275.328217 312.994934,276.514343 314.332550,277.921844 
	C315.526031,279.177643 317.134125,280.583038 317.347687,282.093719 
	C317.638123,284.148010 316.776123,286.365234 316.408325,288.512604 
	C314.659241,287.890015 312.882324,287.333832 311.172546,286.617432 
	C310.288971,286.247223 309.524506,285.592621 308.351593,285.031738 
	C307.996948,284.996918 308.000000,285.000000 307.967926,284.654266 
	C305.546661,280.720306 303.157501,277.132050 300.768311,273.543823 
z"/>
<path fill="#20A2D5" opacity="1.000000" stroke="none" 
	d="
M339.801910,290.702087 
	C339.447723,294.068298 338.888885,297.160126 338.173401,300.621155 
	C335.503021,299.732483 332.622223,298.889191 330.588623,297.088928 
	C328.881836,295.577972 327.335632,293.009979 327.179108,290.806244 
	C326.856201,286.259216 328.906525,285.144562 332.989685,287.019440 
	C335.239502,288.052521 337.397736,289.285065 339.801910,290.702087 
z"/>
<path fill="#969A9C" opacity="1.000000" stroke="none" 
	d="
M342.242950,263.194763 
	C338.420898,265.467865 334.598846,267.740967 330.250793,269.678192 
	C329.459045,266.773926 329.193329,264.205505 329.154388,261.410278 
	C333.226776,259.056213 337.072388,256.928925 340.936951,255.250198 
	C341.384918,258.197418 341.813934,260.696106 342.242950,263.194763 
z"/>
<path fill="#838788" opacity="1.000000" stroke="none" 
	d="
M343.254608,240.749893 
	C344.481903,242.732269 345.384003,244.802719 346.495361,247.244980 
	C342.835938,250.085907 338.967255,252.555008 334.752502,254.844879 
	C333.929199,252.074097 333.451996,249.482559 332.974792,246.891022 
	C336.292969,244.873337 339.611176,242.855637 343.254608,240.749893 
z"/>
<path fill="#B8BBBC" opacity="1.000000" stroke="none" 
	d="
M310.351624,273.990906 
	C309.955200,274.045776 309.840576,273.789581 309.832886,273.650024 
	C311.271454,271.753937 312.717712,269.997437 314.804688,267.977875 
	C317.625519,266.830353 319.805664,265.945862 321.989471,265.480499 
	C322.311188,268.520386 322.629211,271.141174 322.947205,273.761932 
	C318.936066,277.691559 314.834229,275.263245 310.351624,273.990906 
z"/>
<path fill="#A7AAAC" opacity="1.000000" stroke="none" 
	d="
M316.876282,254.944122 
	C317.023346,254.458206 317.170441,253.972275 317.513611,253.335785 
	C319.908783,252.485840 322.107788,251.786453 324.942932,251.322800 
	C325.717377,254.364258 325.855713,257.169983 325.708740,260.169006 
	C322.942078,261.536926 320.460724,262.711548 317.985748,263.453918 
	C317.620148,260.329132 317.248199,257.636627 316.876282,254.944122 
z"/>
<path fill="#969A9C" opacity="1.000000" stroke="none" 
	d="
M325.994049,259.975708 
	C325.855713,257.169983 325.717377,254.364258 325.288727,251.278580 
	C327.424927,249.678894 329.851440,248.359177 332.626404,246.965240 
	C333.451996,249.482559 333.929199,252.074097 334.528992,255.107758 
	C331.765747,257.025146 328.879883,258.500427 325.994049,259.975708 
z"/>
<path fill="#A7AAAC" opacity="1.000000" stroke="none" 
	d="
M323.278076,273.694458 
	C322.629211,271.141174 322.311188,268.520386 322.275238,265.278748 
	C324.680725,263.650940 326.804138,262.644012 328.927612,261.637085 
	C329.193329,264.205505 329.459045,266.773926 329.894531,269.730835 
	C327.912506,271.288574 325.760712,272.457794 323.278076,273.694458 
z"/>
<path fill="#838788" opacity="1.000000" stroke="none" 
	d="
M342.556946,263.114990 
	C341.813934,260.696106 341.384918,258.197418 341.104797,254.982803 
	C342.840454,253.207520 344.427246,252.148193 346.014038,251.088867 
	C346.351044,253.816864 346.688019,256.544861 347.040710,259.711487 
	C345.661224,261.111816 344.266052,262.073517 342.556946,263.114990 
z"/>
<path fill="#FFFFFF" opacity="1.000000" stroke="none" 
	d="
M344.315552,307.141998 
	C342.072205,305.690277 340.165863,304.299500 338.308655,302.582916 
	C338.357819,302.257141 338.717987,302.202637 338.859741,302.088135 
	C342.099091,303.620605 345.196747,305.267609 348.633759,307.005188 
	C351.687317,309.336761 354.401550,311.577728 357.398010,313.977356 
	C357.925323,314.971405 358.170349,315.806732 358.689758,317.577332 
	C357.126282,316.400543 356.383881,315.841766 355.313568,315.158752 
	C351.541290,312.424042 348.096924,309.813477 344.315552,307.141998 
z"/>
<path fill="#FBFDFE" opacity="1.000000" stroke="none" 
	d="
M214.874115,328.977417 
	C216.412247,327.663757 217.889359,326.698242 219.476669,325.974365 
	C219.625229,325.906647 221.072052,327.630157 220.880188,328.066589 
	C220.267471,329.460419 219.166458,330.639587 218.253998,331.901642 
	C217.117111,331.065063 215.980240,330.228485 214.874115,328.977417 
z"/>
<path fill="#1992C8" opacity="1.000000" stroke="none" 
	d="
M346.276947,250.880432 
	C344.427246,252.148193 342.840454,253.207520 341.085815,254.534256 
	C337.072388,256.928925 333.226776,259.056213 329.154358,261.410278 
	C326.804138,262.644012 324.680725,263.650940 322.271545,264.859619 
	C319.805664,265.945862 317.625519,266.830353 315.107971,267.850220 
	C314.777954,267.563751 314.785400,267.141937 315.004486,266.164124 
	C316.137238,265.034149 317.058319,264.460175 317.979401,263.886169 
	C320.460724,262.711548 322.942078,261.536926 325.708740,260.169006 
	C328.879883,258.500427 331.765747,257.025146 334.875061,255.286987 
	C338.967255,252.555008 342.835938,250.085907 346.871033,247.324341 
	C350.152252,243.159546 353.267090,239.287216 356.677765,235.257080 
	C356.780579,236.716507 357.155304,238.786682 356.291840,239.869003 
	C353.271942,243.654129 349.824738,247.098312 346.276947,250.880432 
z"/>
<path fill="#B8BBBC" opacity="1.000000" stroke="none" 
	d="
M317.985748,263.453918 
	C317.058319,264.460175 316.137238,265.034149 314.994995,265.847473 
	C313.681091,266.442383 312.556732,266.722992 311.502014,267.168549 
	C309.047424,268.205444 306.609283,269.068634 305.480164,265.567535 
	C304.555847,262.701416 304.404846,260.015594 307.996002,258.629181 
	C310.768036,257.559021 313.450684,256.257477 316.524689,255.001465 
	C317.248199,257.636627 317.620148,260.329132 317.985748,263.453918 
z"/>
<path fill="#1992C8" opacity="1.000000" stroke="none" 
	d="
M300.564331,273.566895 
	C303.157501,277.132050 305.546661,280.720306 307.969482,284.655762 
	C302.470367,283.746063 300.787018,279.525146 300.005768,274.207458 
	C300.009155,273.802612 300.360352,273.589935 300.564331,273.566895 
z"/>
</svg>